<svg xmlns="http://www.w3.org/2000/svg" width="16" height="16" viewBox="0 0 16 16">
  <g id="edit-icon" transform="translate(0.928 0.475)">
    <g id="Group_38" data-name="Group 38" transform="translate(4.027 3.978)">
      <path id="Path_18" data-name="Path 18" d="M3588.5-509.084l-3.8,3.766,1.319,1.342,3.8-3.757Z" transform="translate(-3584.105 510.376)" fill="#fff"/>
      <path id="Rectangle_9" data-name="Rectangle 9" d="M0,0H.316a.948.948,0,0,1,.948.948v0A.948.948,0,0,1,.316,1.9H0a0,0,0,0,1,0,0V0A0,0,0,0,1,0,0Z" transform="translate(4.777 0.893) rotate(-45)" fill="#fff"/>
      <path id="Path_19" data-name="Path 19" d="M204.735,1015.6v1.372h1.371Z" transform="translate(-204.735 -1009.996)" fill="#fff"/>
    </g>
    <circle id="Ellipse_9" data-name="Ellipse 9" cx="7.5" cy="7.5" r="7.5" transform="translate(-0.428 0.025)" fill="none" stroke="#fff" stroke-width="1"/>
  </g>
</svg>
